<svg height='100px' width='100px'  fill="#008522" xmlns="http://www.w3.org/2000/svg" data-name="Layer 1" viewBox="0 0 32 32" x="0px" y="0px"><title>Artboard 48</title><path d="M18.7887,23.0332a6.09417,6.09417,0,0,1-2.79981-.68457,6.09642,6.09642,0,0,1-5.9541-10.63281,6.09962,6.09962,0,1,1,11.9082,0A6.09736,6.09736,0,0,1,18.7887,23.0332Zm-2.79981-1.75488a.50149.50149,0,0,1,.251.06738,5.096,5.096,0,1,0,4.89258-8.9375.50105.50105,0,0,1-.25-.584,5.09963,5.09963,0,1,0-9.78711,0,.50108.50108,0,0,1-.25.584,5.09605,5.09605,0,1,0,4.89257,8.9375A.50152.50152,0,0,1,15.98889,21.27832Z"></path><path d="M15.98889,27.7002a.49972.49972,0,0,1-.5-.5v-14a.5.5,0,0,1,1,0v14A.49972.49972,0,0,1,15.98889,27.7002Z"></path><path d="M15.98889,17.43359a.5.5,0,0,1-.35351-.85351l2.7998-2.79981a.49995.49995,0,0,1,.707.707l-2.7998,2.79981A.49838.49838,0,0,1,15.98889,17.43359Z"></path><path d="M15.98889,20.2334a.49894.49894,0,0,1-.27734-.084l-2.79981-1.86718a.5.5,0,0,1,.55469-.832l2.7998,1.86718a.5.5,0,0,1-.27734.916Z"></path><path d="M25.45569,24.42188a5.01341,5.01341,0,0,1-2.2666-.543,5.01954,5.01954,0,0,1-2.26661.543.5.5,0,0,1,0-1,4.03182,4.03182,0,0,0,2.01563-.544.5011.5011,0,0,1,.50195,0,4.03058,4.03058,0,1,0,3.86914-7.06934.49813.49813,0,0,1-.249-.583,4.028,4.028,0,0,0-3.87109-5.15918.5.5,0,0,1,0-1,5.02825,5.02825,0,0,1,4.92773,6.05273,5.03151,5.03151,0,0,1-2.66113,9.30274Z"></path><path d="M23.18909,27.7002a.49972.49972,0,0,1-.5-.5v-3.5a.5.5,0,0,1,1,0v3.5A.49972.49972,0,0,1,23.18909,27.7002Z"></path><path d="M11.0553,24.42188a5.01946,5.01946,0,0,1-2.2666-.543A5.03029,5.03029,0,0,1,3.861,15.11914,5.02825,5.02825,0,0,1,8.7887,9.06641a.5.5,0,0,1,0,1,4.028,4.028,0,0,0-3.8711,5.15918.49813.49813,0,0,1-.249.583,4.03069,4.03069,0,1,0,3.86914,7.06934.5011.5011,0,0,1,.50195,0,4.03185,4.03185,0,0,0,2.01563.544.5.5,0,1,1,0,1Z"></path><path d="M8.7887,27.7002a.49972.49972,0,0,1-.5-.5v-3.5a.5.5,0,0,1,1,0v3.5A.49972.49972,0,0,1,8.7887,27.7002Z"></path></svg>
