<svg height='100px' width='100px'  fill="#008522" xmlns="http://www.w3.org/2000/svg" data-name="Layer 1" viewBox="0 0 32 32" x="0px" y="0px"><title>Artboard 21</title><path d="M13.98889,29.5A12.5,12.5,0,1,1,20.17053,6.13281a.50038.50038,0,0,1-.49609.86914,11.50021,11.50021,0,1,0,4.91015,14.47412.50042.50042,0,0,1,.92188.38965A12.48291,12.48291,0,0,1,13.98889,29.5Z"></path><path d="M11.59436,25.4292c-.05371,0-.1084-.00244-.16309-.00781a1.6224,1.6224,0,0,1-1.19238-.7168l-.82617-1.23975a.62857.62857,0,0,0-.17481-.17334L7.35608,22.03662a1.6255,1.6255,0,0,1-.72461-1.35449V18.4209a.62926.62926,0,0,0-.251-.50147L3.68518,15.897a1.6293,1.6293,0,0,1-.56738-.78564l-.7461-2.23877.94922-.31641L4.066,14.79346a.62732.62732,0,0,0,.21875.30371l2.69531,2.022a1.63242,1.63242,0,0,1,.65137,1.30176v2.26123a.62848.62848,0,0,0,.2793.52295L9.7926,22.459a1.61484,1.61484,0,0,1,.45117.44971l.82715,1.24121a.6271.6271,0,0,0,.46.27637.63542.63542,0,0,0,.50586-.18115l1.34278-1.34326a.61684.61684,0,0,0,.17578-.34131l.71777-4.30957a.62928.62928,0,0,0-.11621-.479L12.21252,15.1792a.6304.6304,0,0,0-.50195-.25049H9.31311a1.63447,1.63447,0,0,1-1.15039-.47754l-.58691-.58594a1.62911,1.62911,0,0,1,0-2.30175l.46582-.46582a1.63149,1.63149,0,0,1,1.54492-.42774l1.4082.35205a.63119.63119,0,0,0,.53906-.11426.62313.62313,0,0,0,.24121-.49462,1.62877,1.62877,0,0,1,1.627-1.62745h.7373A.62677.62677,0,0,0,14.734,7.96l-.10547-.31641a.62531.62531,0,0,0-.59473-.42919h-1.0625a1.62026,1.62026,0,0,1-1.45605-.89991l-.54492-1.09082.89453-.44726.54492,1.09082a.62538.62538,0,0,0,.56152.34717h1.0625a1.62479,1.62479,0,0,1,1.54395,1.11279l.10547.3164a1.62734,1.62734,0,0,1-1.544,2.14209H13.402a.62777.62777,0,0,0-.627.62745,1.62675,1.62675,0,0,1-2.02246,1.57861l-1.4082-.35205a.63458.63458,0,0,0-.5957.16455l-.46582.46631a.62771.62771,0,0,0,0,.88769l.58691.58643a.6306.6306,0,0,0,.44336.18408h2.39746a1.63831,1.63831,0,0,1,1.30274.65039l1.94335,2.59229a1.63036,1.63036,0,0,1,.30274,1.24414l-.71777,4.31006a1.6146,1.6146,0,0,1-.45606.88427l-1.3418,1.34278A1.62331,1.62331,0,0,1,11.59436,25.4292Z"></path><path d="M18.57483,13.05322a1.61858,1.61858,0,0,1-1.14649-.478l-.4248-.42383a1.6309,1.6309,0,0,1,0-2.30176l.78809-.78809a1.63493,1.63493,0,0,1,.42285-.30468l.4082-.20411a.62838.62838,0,0,0,.24219-.90966L17.859,6.13428a.5.5,0,1,1,.832-.55469L19.6969,7.08838a1.62723,1.62723,0,0,1-.627,2.3584l-.40821.2041a.63945.63945,0,0,0-.16406.11865l-.78711.78662a.6301.6301,0,0,0,0,.88819l.42481.42382a.6334.6334,0,0,0,.6416.15186l1.46777-.48926a.49982.49982,0,1,1,.31641.94824l-1.46778.48926A1.63387,1.63387,0,0,1,18.57483,13.05322Z"></path><path d="M20.84631,26.92871a.5004.5004,0,0,1-.44726-.27637l-.6709-1.3413a1.63137,1.63137,0,0,1-.123-1.123l.5625-2.25244a.62812.62812,0,0,0-.25976-.67432L18.319,20.20215a1.63649,1.63649,0,0,1-.6416-.83985l-.51465-1.543a1.6207,1.6207,0,0,1,.39355-1.66553l1.749-1.74854a.49995.49995,0,0,1,.707.707l-1.749,1.74854a.62368.62368,0,0,0-.15137.64258l.51465,1.543a.62878.62878,0,0,0,.248.32422l1.58789,1.05859a1.62957,1.62957,0,0,1,.67579,1.74951l-.5625,2.252a.62841.62841,0,0,0,.04687.4336l.6709,1.34082a.49994.49994,0,0,1-.44727.72363Z"></path><path d="M24.10413,20.11523a3.61194,3.61194,0,0,1-2.57715-6.146V5.07715a2.57715,2.57715,0,1,1,5.15429,0v8.89209a3.61194,3.61194,0,0,1-2.57714,6.146Zm0-16.61523A1.57864,1.57864,0,0,0,22.527,5.07715v9.32861l-.166.14893a2.61524,2.61524,0,1,0,3.48633,0l-.166-.14893V5.07715A1.57864,1.57864,0,0,0,24.10413,3.5Z"></path><rect x="23.60413" y="9.39453" width="1" height="7.10547"></rect><circle cx="24.10428" cy="16.5" r="1"></circle><rect x="27.56604" y="4.92285" width="2.42285" height="1"></rect><rect x="27.56604" y="6.65381" width="2.42285" height="1"></rect><rect x="27.56604" y="8.38477" width="2.42285" height="1"></rect><rect x="27.56604" y="10.11523" width="2.42285" height="1"></rect><rect x="27.56604" y="11.84619" width="2.42285" height="1"></rect></svg>
