<svg height='100px' width='100px'  fill="#FFFFFF" xmlns="http://www.w3.org/2000/svg" xmlns:xlink="http://www.w3.org/1999/xlink" version="1.1" x="0px" y="0px" viewBox="0 0 100 100" style="enable-background:new 0 0 100 100;" xml:space="preserve"><g><path d="M50.1,90.9L37.4,81l-16.8-1.8L18.9,63L9,49.8l9.9-12.2l1.8-17L37.4,19L50.1,8.6l12.7,11.2l16.5,1.3l1.3,16.8L91,50.3   L80.9,63.2l-1,16.5l-16.3,1.5L50.1,90.9z M21.6,78.3L37.8,80l12.3,9.6l13.1-9.4l15.7-1.5l1-16l9.8-12.6L79.6,38.2l0-0.2L78.4,22   l-16-1.2L50.1,9.9L37.8,20l-16.2,1.5L19.9,38l-9.6,11.8l9.6,12.8L21.6,78.3z"></path><path d="M57.1,67H42.9L32.8,56.9V42.6l10.1-10.1h14.2l10.1,10.1v14.2L57.1,67z M43.3,66h13.4l9.5-9.5V43.1l-9.5-9.5H43.3l-9.5,9.5   v13.4L43.3,66z"></path><rect x="39.9" y="19" transform="matrix(0.9276 -0.3737 0.3737 0.9276 -6.9033 16.9847)" width="1" height="14.6"></rect><rect x="52.8" y="26.2" transform="matrix(0.4069 -0.9135 0.9135 0.4069 11.0837 70.416)" width="14" height="1"></rect><rect x="66.3" y="39.9" transform="matrix(0.9411 -0.3381 0.3381 0.9411 -9.3495 27.2055)" width="14.3" height="1"></rect><rect x="73" y="52.3" transform="matrix(0.4202 -0.9074 0.9074 0.4202 -11.678 101.4251)" width="1" height="15.1"></rect><rect x="59.6" y="65.8" transform="matrix(0.9114 -0.4116 0.4116 0.9114 -24.9697 31.2805)" width="1" height="15.7"></rect><rect x="32.8" y="73" transform="matrix(0.3625 -0.932 0.932 0.3625 -42.7659 84.4655)" width="15.1" height="1"></rect><rect x="18.7" y="59.2" transform="matrix(0.9163 -0.4005 0.4005 0.9163 -21.7169 15.5499)" width="15.2" height="1"></rect><rect x="25.8" y="32.9" transform="matrix(0.3429 -0.9394 0.9394 0.3429 -20.5607 51.2304)" width="1" height="14.8"></rect><path d="M58.9,71.2H41.1L28.5,58.7V40.9l12.6-12.6h17.8l12.6,12.6v17.8L58.9,71.2z M41.5,70.2h16.9l12-12V41.3l-12-12H41.5l-12,12   v16.9L41.5,70.2z"></path></g></svg>