<svg height='100px' width='100px'  fill="#008522" xmlns="http://www.w3.org/2000/svg" data-name="Layer 1" viewBox="0 0 32 32" x="0px" y="0px"><title>Artboard 50</title><path d="M23.68469,28.84961H6.901A5.40979,5.40979,0,0,1,5.17639,18.31152c-.00195-.06543-.00342-.13086-.00342-.19629a6.64108,6.64108,0,0,1,12.55078-3.02929A5.32,5.32,0,0,1,19.59143,14.75a5.41807,5.41807,0,0,1,5.41211,5.41211,5.11526,5.11526,0,0,1-.02686.52246,4.18477,4.18477,0,0,1-1.292,8.165ZM11.8136,12.47461A5.64689,5.64689,0,0,0,6.173,18.11523c0,.17481.01123.34668.02686.51758a.5014.5014,0,0,1-.376.53125A4.40921,4.40921,0,0,0,6.901,27.84961H23.68469a3.18427,3.18427,0,0,0,.63477-6.30469.49982.49982,0,0,1-.39258-.58008A4.39723,4.39723,0,0,0,19.59143,15.75a4.35877,4.35877,0,0,0-1.90039.43555.50042.50042,0,0,1-.67725-.25684A5.63067,5.63067,0,0,0,11.8136,12.47461Z"></path><path d="M20.42883,6.0625a.49972.49972,0,0,1-.5-.5V3.65039a.5.5,0,1,1,1,0V5.5625A.49971.49971,0,0,1,20.42883,6.0625Z"></path><path d="M15.02112,8.30273a.49838.49838,0,0,1-.35352-.14648L13.31555,6.80371a.49995.49995,0,0,1,.707-.707l1.35205,1.35254a.5.5,0,0,1-.35351.85351Z"></path><path d="M29.98889,13.71094H28.07678a.5.5,0,0,1,0-1h1.91211a.5.5,0,1,1,0,1Z"></path><path d="M25.837,8.30273a.5.5,0,0,1-.35352-.85351l1.35205-1.35254a.49995.49995,0,0,1,.707.707l-1.352,1.35254A.49835.49835,0,0,1,25.837,8.30273Z"></path><path d="M17.50207,6.64453a.50017.50017,0,0,1-.46191-.30859L16.55237,5.1582a.5.5,0,1,1,.92383-.38281L17.964,5.95313a.50039.50039,0,0,1-.27051.65332A.49049.49049,0,0,1,17.50207,6.64453Z"></path><path d="M28.67248,17.125a.492.492,0,0,1-.1914-.03809l-1.17774-.4873a.5.5,0,0,1,.38282-.92383l1.17773.48731a.5.5,0,0,1-.19141.96191Z"></path><path d="M27.49475,10.78418a.5.5,0,0,1-.19141-.96191L28.48108,9.334a.5.5,0,0,1,.38281.92383l-1.17773.48828A.49033.49033,0,0,1,27.49475,10.78418Z"></path><path d="M23.35559,6.64453a.49053.49053,0,0,1-.19141-.03808.50039.50039,0,0,1-.2705-.65332l.48779-1.17774a.5.5,0,0,1,.92383.38281l-.4878,1.17774A.50017.50017,0,0,1,23.35559,6.64453Z"></path><path d="M25.652,17.35645a.49936.49936,0,0,1-.40918-.78614A5.86944,5.86944,0,1,0,15.12366,10.7041a.49974.49974,0,1,1-.90332-.42773,6.869,6.869,0,0,1,13.082,2.93457,6.831,6.831,0,0,1-1.24024,3.93164A.4981.4981,0,0,1,25.652,17.35645Z"></path></svg>
