<svg height='100px' width='100px'  fill="#008522" xmlns="http://www.w3.org/2000/svg" viewBox="0 0 64 64" x="0px" y="0px"><g><path d="M24.929,11.271a1,1,0,0,1-.707-.292,3,3,0,1,1,4.247-4.238,1,1,0,0,1-1.414,1.414,1.006,1.006,0,0,0-.713-.3.976.976,0,0,0-.7.3.985.985,0,0,0,0,1.41,1,1,0,0,1-.707,1.707Z"></path><path d="M56.19,21.52a.983.983,0,0,0-.62-.68l-5.04-1.89a8.965,8.965,0,0,0-10.95,3.93l-1.42,2.45A10.171,10.171,0,0,0,33,28.97V23.41l9.61-9.6A7,7,0,0,0,37.67,1.86h-.01A7,7,0,0,0,32.7,3.91l-.7.71-.7-.71a7,7,0,0,0-4.96-2.05h-.01a7,7,0,0,0-4.94,11.95L31,23.41v9.56a10.171,10.171,0,0,0-5.16-3.64l-1.42-2.45a8.965,8.965,0,0,0-10.95-3.93L8.43,24.84a.983.983,0,0,0-.62.68,1.018,1.018,0,0,0,.19.89l3.43,4.16a8.981,8.981,0,0,0,11.45,2.08l2.41-1.4A8.129,8.129,0,0,1,30.93,38H19a1,1,0,0,0-1,1v6a1,1,0,0,0,1,1h1.22l3.81,15.24A1,1,0,0,0,25,62H39a1,1,0,0,0,.97-.76L43.78,46H45a1,1,0,0,0,1-1V39a1,1,0,0,0-1-1H33V35a8.126,8.126,0,0,1,5.71-7.75l2.41,1.4a8.981,8.981,0,0,0,11.45-2.08L56,22.41A1.018,1.018,0,0,0,56.19,21.52ZM14.5,26.28a.988.988,0,0,0-1.22.7,1,1,0,0,0,.7,1.23l8.6,2.3-.7.41a6.991,6.991,0,0,1-8.91-1.62l-2.53-3.08,3.73-1.4a6.984,6.984,0,0,1,8.52,3.06l.41.7ZM38.22,60H25.78l-3.5-14H41.72ZM44,40v4H20V40ZM32,21.59l-9.19-9.2a4.973,4.973,0,0,1,0-7.06,4.985,4.985,0,0,1,7.07,0l1.41,1.41a1.008,1.008,0,0,0,1.42,0l1.41-1.41a5,5,0,1,1,7.07,7.06ZM51.03,25.3a6.989,6.989,0,0,1-8.91,1.62l-.7-.41,8.6-2.3a1,1,0,0,0,.7-1.23.988.988,0,0,0-1.22-.7l-8.6,2.3.41-.7a6.984,6.984,0,0,1,8.52-3.06l3.73,1.4Z"></path></g></svg>