<svg height='40px' width='40px'  fill="#008522" xmlns="http://www.w3.org/2000/svg" viewBox="0 0 64 64" x="0px" y="0px"><g><path d="M18,8h2a1,1,0,0,0,0-2H18a1,1,0,0,0,0,2Z"></path><path d="M57,8H36V7a5,5,0,0,0-5-5H7A5,5,0,0,0,2,7V51a5,5,0,0,0,5,5H28v1a5,5,0,0,0,5,5H57a5,5,0,0,0,5-5V13A5,5,0,0,0,57,8ZM36,14h1.93a.968.968,0,0,1,.82.44l.84,1.24A2.977,2.977,0,0,0,42.07,17h5.85a3,3,0,0,0,2.5-1.33l.83-1.23a.968.968,0,0,1,.82-.44H55a1,1,0,0,1,1,1V55a1,1,0,0,1-1,1H35a1,1,0,0,1-1-1v-.03A4.952,4.952,0,0,0,36,51V43.41l9.32-9.31a8.015,8.015,0,0,0,0-11.32A8.04,8.04,0,0,0,36,21.33Zm-.58,10.2a6,6,0,0,1,8.48,0,5.987,5.987,0,0,1,0,8.48L33,43.59,22.1,32.68a6,6,0,0,1,8.48-8.48l1.71,1.71a1.008,1.008,0,0,0,1.42,0ZM30,43.41V49a1,1,0,0,1-1,1H9a1,1,0,0,1-1-1V9A1,1,0,0,1,9,8h2.93a.968.968,0,0,1,.82.44l.84,1.24A2.977,2.977,0,0,0,16.07,11h5.85a3,3,0,0,0,2.5-1.33l.83-1.23A.968.968,0,0,1,26.07,8H29a1,1,0,0,1,1,1V21.33a8.037,8.037,0,0,0-9.32,1.45,8.015,8.015,0,0,0,0,11.32ZM7,54a3.009,3.009,0,0,1-3-3V7A3.009,3.009,0,0,1,7,4H31a3.009,3.009,0,0,1,3,3V22.79l-1,1-1-1V9a3.009,3.009,0,0,0-3-3H26.07a2.977,2.977,0,0,0-2.48,1.32l-.83,1.24a1.029,1.029,0,0,1-.84.44H16.07a.968.968,0,0,1-.82-.44l-.84-1.24A2.977,2.977,0,0,0,11.93,6H9A3.009,3.009,0,0,0,6,9V49a3.009,3.009,0,0,0,3,3H29a3.009,3.009,0,0,0,3-3V45.41l.29.3a1.014,1.014,0,0,0,1.42,0l.29-.3V51a3.009,3.009,0,0,1-3,3Zm53,3a3.009,3.009,0,0,1-3,3H33a3.009,3.009,0,0,1-3-3V56h1a5.388,5.388,0,0,0,1.14-.14A3,3,0,0,0,35,58H55a3.009,3.009,0,0,0,3-3V15a3.009,3.009,0,0,0-3-3H52.07a2.977,2.977,0,0,0-2.48,1.32l-.83,1.24a1.029,1.029,0,0,1-.84.44H42.07a.968.968,0,0,1-.82-.44l-.84-1.24A2.977,2.977,0,0,0,37.93,12H36V10H57a3.009,3.009,0,0,1,3,3Z"></path><path d="M46,12H44a1,1,0,0,0,0,2h2a1,1,0,0,0,0-2Z"></path><path d="M23.511,25.612A3.973,3.973,0,0,0,22.34,28.44a3.924,3.924,0,0,0,1.172,2.829,1,1,0,1,0,1.414-1.415,1.932,1.932,0,0,1-.586-1.414,1.989,1.989,0,0,1,.584-1.413,2.055,2.055,0,0,1,2.83,0,1,1,0,0,0,1.414-1.414A4.1,4.1,0,0,0,23.511,25.612Z"></path></g></svg>