<svg height='100px' width='100px'  fill="#FFFFFF" xmlns="http://www.w3.org/2000/svg" xmlns:xlink="http://www.w3.org/1999/xlink" version="1.1" x="0px" y="0px" viewBox="0 0 100 100" style="enable-background:new 0 0 100 100;" xml:space="preserve"><path d="M57.8,69H42.2l-11-11V42.4l11-11h15.6l11,11V58L57.8,69z M42.6,68h14.8l10.4-10.4V42.8L57.4,32.3H42.6L32.2,42.8v14.8  L42.6,68z"></path><path d="M64.7,85.7H35.3L14.4,64.9V35.4l20.8-20.8h29.5l20.8,20.8v29.5L64.7,85.7z M35.7,84.7h28.7l20.3-20.3V35.8L64.3,15.6H35.7  L15.4,35.8v28.6L35.7,84.7z"></path><rect x="38.4" y="14.4" transform="matrix(0.9239 -0.3827 0.3827 0.9239 -6.0095 16.6857)" width="1" height="18.1"></rect><rect x="52" y="22.9" transform="matrix(0.3828 -0.9238 0.9238 0.3828 16.0269 70.8854)" width="18.1" height="1"></rect><rect x="67.6" y="38.6" transform="matrix(0.9238 -0.3828 0.3828 0.9238 -9.1226 32.3422)" width="18.1" height="1"></rect><rect x="76.2" y="52.2" transform="matrix(0.3827 -0.9239 0.9239 0.3827 -9.2049 108.6619)" width="1" height="18.1"></rect><rect x="60.6" y="67.8" transform="matrix(0.9239 -0.3827 0.3827 0.9239 -24.7664 29.2187)" width="1" height="18.1"></rect><rect x="29.9" y="76.4" transform="matrix(0.3828 -0.9238 0.9238 0.3828 -46.9773 83.4105)" width="18.1" height="1"></rect><rect x="14.2" y="60.7" transform="matrix(0.9238 -0.3828 0.3828 0.9238 -21.6609 13.58)" width="18.1" height="1"></rect><rect x="22.8" y="30" transform="matrix(0.3827 -0.9239 0.9239 0.3827 -21.739 45.6535)" width="1" height="18.1"></rect></svg>