<svg height='100px' width='100px'  fill="#FFFFFF" xmlns="http://www.w3.org/2000/svg" xmlns:xlink="http://www.w3.org/1999/xlink" version="1.1" x="0px" y="0px" viewBox="0 0 100 100" style="enable-background:new 0 0 100 100;" xml:space="preserve"><g><path d="M93.8,40.3l-9.3-4.1l2.1-12.9L75,12.9l-11.4,2.6l-5-9.8H41.7l-5.8,9.4l-11.8-2.5L13.1,23.4l3,11.9L6.2,41v18.1l9.6,5.1   l-3.3,10.7l12,12.3l12-5.9l5.3,13h16.5L64.4,84l10.9,2.5l11.7-10.7l-2.8-11.6l9.6-5.6V40.3z M72.8,16.8l10.1,8.9L81,37.1l-13.6,5.5   l1.5-3.5l-4.8-6.3l0,0l-0.3-0.4l-0.2-0.3L63.3,32l0,0l0,0l0,0h0l-3.1,0.4L57,32.8l5.7-13.7L72.8,16.8z M55.2,38.1h-1.8l1.7-4.1   l7.8-1l4.8,6.2L66,43.2l-1.4,3.3l-2.5,0.3v-1.9L55.2,38.1z M67.6,60.3l-4.8,6.2l-7.8-1l-1.7-4.1h1.8l6.9-6.9v-1.9l2.5,0.3l1.2,2.8   l0,0L67.6,60.3z M45.5,61.5h1.8l-1.7,4.1l-7.8,1l-4.8-6.2l3-7.2l2.6-0.3v1.9L45.5,61.5z M36.1,46.5l-3-7.2l4.8-6.2l7.8,1l1.7,4.1   h-1.8l-6.9,6.9v1.9L36.1,46.5z M46,60.5l-6.3-6.3v-1.6v-1V48v-1v-1.6l6.3-6.3h1.8h0h1h0h3h0h1h0h1.8l6.3,6.3V47l0,0v5.6l0,0v1.6   l-6.3,6.3H53h-1h0h-3.1h-1h0H46z M42.9,10.1h14.5l4.4,8.6l-5.9,14.2l-1.5,0.2l-2.1,5h-3.9l-2.1-5l-2.6-0.3l0,0l-5.9-14.4L42.9,10.1   z M26.4,16.6l10.4,2.2l5.7,13.8L37.7,32l-0.2,0l0,0l0,0l0,0L37,32.5l-0.3,0.4l0,0l-4.8,6.2l1.2,2.9l-7.9-3.3l-5.6-2.4L17,25.8   L26.4,16.6z M10.5,57.8V42.2l8.8-5l5.9,2.5l8.6,3.6l1.7,4.1l3.3,0.4v3.8l-3.3,0.4l-1.8,4.2l-14.7,6L10.5,57.8z M26.5,83.2   L16.4,72.7l2.9-9.5l13.8-5.6l-1.2,2.8l4.8,6.2l0,0l0.3,0.4l0.2,0.3l0.2,0.2l0,0l0,0l0,0h0l4.4-0.6l-4.5,10.9L26.5,83.2z M57,89.9   h-14l-4.7-11.7l4.7-11.4l3.4-0.4l2.1-5h3.9l2.1,5l2.3,0.3l5.8,14.1L57,89.9z M73.1,82.6l-9.7-2.2l-5.6-13.6l5.2,0.7l0.2,0l0,0l0,0   l0,0l0.4-0.5l0.3-0.4l0,0l4.8-6.2l-1.1-2.7l13,5.5l2.5,10.2L73.1,82.6z M89.5,57.3l-8.5,5l-13.9-5.9l-1.8-4.3l-3.3-0.4v-3.8   l3.3-0.4l1.5-3.5L81.4,38l8.1,3.6V57.3z"></path></g></svg>