<svg height='100px' width='100px'  fill="#FFFFFF" xmlns="http://www.w3.org/2000/svg" xmlns:xlink="http://www.w3.org/1999/xlink" version="1.1" x="0px" y="0px" viewBox="0 0 100 100" style="enable-background:new 0 0 100 100;" xml:space="preserve"><path d="M51.4,88.9c-14.5,0-27.4-12.1-28.4-26.5c-0.8-12.1,18.9-42.3,25.3-49.2c1.5-1.7,2.2-1.9,2.6-1.9c0.5,0,1.1,0.4,2,1.4  C59,19.6,77.9,52.9,77,62.5C76,73.3,66.2,88.9,51.4,88.9z M50.9,12.4c-1.2,0.1-7.7,8.2-14.8,20.1c-8,13.4-12.4,24.3-12,29.9  c0.9,13.8,13.4,25.5,27.4,25.5C65.7,87.9,75,72.8,76,62.4C76.9,52.4,54,12.9,50.9,12.4z"></path></svg>