<svg height='100px' width='100px'  fill="#FFFFFF" xmlns="http://www.w3.org/2000/svg" xmlns:xlink="http://www.w3.org/1999/xlink" version="1.1" x="0px" y="0px" viewBox="0 0 100 100" style="enable-background:new 0 0 100 100;" xml:space="preserve"><path d="M50.5,93.7l-0.3-0.3c-0.2-0.2-24.9-24.7-30.3-29.7c-3.4-3.2-14.4-15-11.7-33.4c2.4-16.5,17.4-20.1,22.9-20.1l0.1,0  c10.5,0.1,17.5,8.6,19.3,10.9c1.7-2.5,8.6-11.2,21.7-10.6c5.3,0.2,9.8,2.6,13.5,6.9c4.7,5.6,6.6,13,6.3,15c-0.1,0.4,0,1.2,0,2.2  c0.3,5.1,0.9,15.6-7.8,25.1C74,70.9,51.1,93.2,50.9,93.4L50.5,93.7z M31.2,11.2c-0.3,0-19.2,0.5-22,19.3C6.6,48.4,17.3,59.9,20.6,63  c5,4.6,26.9,26.3,29.9,29.3c2.9-2.9,23.5-22.9,33-33.3c8.4-9.2,7.8-19.5,7.6-24.4c-0.1-1.1-0.1-1.8,0-2.3c0.2-1.4-1.4-8.6-6.1-14.2  c-3.5-4.1-7.8-6.3-12.8-6.5C57.7,10.9,51,22.2,51,22.3L50.6,23l-0.4-0.7C50.1,22.2,42.8,11.4,31.2,11.2L31.2,11.2z"></path><rect x="50.3" y="22" width="0.5" height="71"></rect></svg>