<svg height='100px' width='100px'  fill="#FFFFFF" xmlns="http://www.w3.org/2000/svg" xmlns:xlink="http://www.w3.org/1999/xlink" version="1.1" x="0px" y="0px" viewBox="0 0 100 100" style="enable-background:new 0 0 100 100;" xml:space="preserve"><path d="M53,93.4c-19.4,0-39-7.2-39-23.3c0-4.7,1-13.6,8-21.6c-0.2-1-1.5-2.2-3-3.6c-2.7-2.5-6.3-5.9-8.5-11.9  c-1.3-8,0.6-11.2,6.3-18.6l0.4-0.5l1,1.1c3.7,4.2,8.8,10,12.3,10.3c0.1,0,0.3,0,0.4,0h0c3.3,0,5.8-4.1,8.5-8.5  c3-5,6.1-10.2,11.1-10.2c4.2,0,6.7,4.1,9.4,8.5c2.5,4,5,8.2,8.9,8.9c0.3,0.1,0.7,0.1,1,0.1c3.8,0,6.7-4.1,11.9-11.7l0.9-1.2l0.4,0.5  c3.9,4.7,6.5,13.7,6.8,18.4c0.3,4.9-2.7,10.1-5.6,15.2c-0.6,1-1.1,1.9-1.6,2.8c4.4,6.5,7.4,14,7.4,18.7C90,82,74,93.4,53,93.4z   M17.2,15.4c-5.4,6.9-7,9.9-5.8,17.3c2,5.7,5.6,9,8.2,11.5c1.8,1.7,3.2,3,3.3,4.4l0,0.2L22.8,49C16,56.7,15,65.5,15,70.1  C15,85.5,34,92.4,53,92.4c20.5,0,36-11,36-25.7c0-4.5-3-12-7.4-18.3l-0.2-0.3l0.1-0.3c0.6-1,1.2-2.1,1.8-3.1  c2.8-4.9,5.8-10,5.5-14.6c-0.3-4.9-2.9-13-6.1-17.3L82.5,13c-5.9,8.5-8.9,12.8-13.9,12c-4.4-0.7-7-5.1-9.6-9.4  c-2.5-4.1-4.9-8.1-8.5-8.1c-4.4,0-7.4,4.9-10.2,9.7c-2.8,4.6-5.4,9-9.3,9c0,0,0,0,0,0c-0.2,0-0.3,0-0.5,0c-4-0.4-9-6.1-13-10.6  L17.2,15.4z"></path><path d="M52,78c-12.5,0-25.1-4.6-25.1-15c0-3,0.7-8.8,5.1-13.9c-1.1-1.4-2.2-2.7-3.2-3.9c-4.1-4.7-6.8-7.8-2.3-15l0.2-0.3l0.2,0.2  c2.6,2.9,8.8,3.7,10.6,3.9c0.1,0,0.2,0,0.3,0c0,0,0,0,0,0c2.2,0,3.8-2.7,5.5-5.5c1.9-3.2,4-6.5,7.1-6.5c2.7,0,4.3,2.7,6,5.5  c1.6,2.6,3.3,5.4,5.8,5.8c0.8,0.1,1.6,0.2,2.3,0.2c3.5,0,6.4-1.8,8.8-5.4l0.2-0.2l0.2,0.2c6.6,5.4,1.2,14.3-1.7,19.1  c-0.4,0.6-0.7,1.2-1,1.6c2.9,4.2,4.8,9,4.8,12.1C75.9,70.6,65.6,78,52,78z M26.8,30.7c-4.1,6.7-1.5,9.7,2.4,14.2  c1,1.2,2.2,2.5,3.4,4l0.1,0.2l-0.1,0.2c-4.4,5-5.1,10.8-5.1,13.7c0,10,12.4,14.5,24.6,14.5c13.3,0,23.3-7.2,23.3-16.7  c0-2.9-2-7.8-4.8-11.9l-0.1-0.1l0.1-0.1c0.3-0.5,0.6-1.1,1-1.8c2.8-4.6,8-13.1,2-18.3c-2.6,3.6-5.5,5.3-9.1,5.3  c-0.7,0-1.5-0.1-2.3-0.2c-2.8-0.5-4.5-3.3-6.2-6c-1.6-2.7-3.2-5.2-5.6-5.2c-2.9,0-4.8,3.2-6.7,6.3c-1.8,3-3.5,5.8-6,5.8h0  c-0.1,0-0.2,0-0.3,0C35.1,34.4,29.5,33.5,26.8,30.7z"></path><path d="M51.4,70.5c-7.3,0-11.8-10.4-11.8-12.1c0-1.8,6.8-15.7,11.8-15.5c4.9,0.3,11.5,13.8,11.5,15.1  C62.9,59.2,58.7,70.5,51.4,70.5z M51.3,43.2c-4.7,0-11.4,13.5-11.4,15.2c0,1.5,4.5,11.8,11.5,11.8c7,0,11.3-11.1,11.3-12.2  c0-0.6-1.6-4.2-3.9-7.7c-2.8-4.5-5.4-7-7.4-7.1C51.3,43.2,51.3,43.2,51.3,43.2z"></path></svg>